<svg xmlns="http://www.w3.org/2000/svg" version="1.1" xmlns:xlink="http://www.w3.org/1999/xlink" xmlns:svgjs="http://svgjs.dev/svgjs" width="1440" height="700" preserveAspectRatio="none" viewBox="0 0 1440 700"><g mask="url(&quot;#SvgjsMask1051&quot;)" fill="none"><rect width="1440" height="700" x="0" y="0" fill="#0e2a47"></rect><path d="M84 700L784 0L1471 0L771 700z" fill="url(&quot;#SvgjsLinearGradient1052&quot;)"></path><path d="M566.2 700L1266.2 0L1815.2 0L1115.2 700z" fill="url(&quot;#SvgjsLinearGradient1052&quot;)"></path><path d="M1433 700L733 0L485.5 0L1185.5 700z" fill="url(&quot;#SvgjsLinearGradient1053&quot;)"></path><path d="M934.8 700L234.79999999999995 0L147.79999999999995 0L847.8 700z" fill="url(&quot;#SvgjsLinearGradient1053&quot;)"></path><path d="M1086.5858976673778 700L1440 346.5858976673778L1440 700z" fill="url(&quot;#SvgjsLinearGradient1052&quot;)"></path><path d="M0 700L353.4141023326222 700L 0 346.5858976673778z" fill="url(&quot;#SvgjsLinearGradient1053&quot;)"></path></g><defs><mask id="SvgjsMask1051"><rect width="1440" height="700" fill="#ffffff"></rect></mask><linearGradient x1="0%" y1="100%" x2="100%" y2="0%" id="SvgjsLinearGradient1052"><stop stop-color="rgba(15, 70, 185, 0.2)" offset="0"></stop><stop stop-opacity="0" stop-color="rgba(15, 70, 185, 0.2)" offset="0.66"></stop></linearGradient><linearGradient x1="100%" y1="100%" x2="0%" y2="0%" id="SvgjsLinearGradient1053"><stop stop-color="rgba(15, 70, 185, 0.2)" offset="0"></stop><stop stop-opacity="0" stop-color="rgba(15, 70, 185, 0.2)" offset="0.66"></stop></linearGradient></defs></svg>